<?xml version="1.0" encoding="utf-8"?>
<svg xmlns="http://www.w3.org/2000/svg"
	xmlns:xlink="http://www.w3.org/1999/xlink"
	width="22px" height="27px" viewBox="0 0 22 27">
<path fillRule="evenodd" d="M 21.8 24.36C 21.65 25.14 21.57 25.41 21.49 25.44 16.81 27.49 5.18 27.49 0.5 25.44 0.43 25.41 0.34 25.14 0.2 24.36 0.2 24.31-1.2 17.33 3.46 15.61 6.62 14.6 7.93 13.33 7.93 13.33 7.93 13.33 8.03 13.43 8.03 13.43 8.97 14.3 10.01 14.81 10.95 14.81 10.95 14.81 11.04 14.81 11.04 14.81 11.99 14.81 13.02 14.3 13.96 13.43 13.96 13.43 14.07 13.33 14.07 13.33 14.07 13.33 15.38 14.6 18.54 15.61 23.21 17.35 21.8 24.31 21.8 24.36ZM 15.37 9.14C 14.82 11.72 12.98 13.91 11.01 13.91 9.04 13.91 7.11 11.72 6.55 9.14 6.5 8.99 6.27 8.82 6.09 8.17 5.9 7.52 5.85 6.9 6.03 6.7 6.03 6.7 6.07 6.66 6.07 6.66 6.33 6.42 6.31 6.44 6.31 6.44 6.31 6.44 5.85 4.16 6.22 3.09 6.83 1.28 8.97 0.32 9.38 0.16 10.01-0.11 10.55 0 10.55 0 10.58 0 11 0.08 11 0.09 11.69 0.22 15.13 1.37 15.7 3.09 16.07 4.16 15.61 6.44 15.61 6.44 15.61 6.44 15.59 6.42 15.85 6.66 15.85 6.66 15.89 6.7 15.89 6.7 16.07 6.86 16.03 7.52 15.83 8.17 15.66 8.82 15.43 8.99 15.37 9.14Z" fill="rgb(0,0,0)"/></svg>