<?xml version="1.0" encoding="utf-8"?>
<svg xmlns="http://www.w3.org/2000/svg"
	xmlns:xlink="http://www.w3.org/1999/xlink"
	width="49px" height="27px" viewBox="0 0 49 27">
<path fillRule="evenodd" d="M 17.82 18.94C 15.61 18.94 13.82 20.74 13.82 22.96 13.82 25.18 15.61 26.98 17.82 26.98 20.04 26.98 21.83 25.18 21.83 22.96 21.83 20.74 20.04 18.94 17.82 18.94 17.82 18.94 17.82 18.94 17.82 18.94ZM 17.82 24.97C 16.72 24.97 15.82 24.07 15.82 22.96 15.82 21.85 16.72 20.95 17.82 20.95 18.93 20.95 19.83 21.85 19.83 22.96 19.83 24.07 18.93 24.97 17.82 24.97 17.82 24.97 17.82 24.97 17.82 24.97ZM 48.04 15.96C 48.04 15.96 48.04 20.25 48.04 20.25 48.04 21.33 47.17 22.19 46.1 22.19 46.1 22.19 44.04 22.19 44.04 22.19 43.66 19.62 41.45 17.64 38.79 17.64 36.13 17.64 33.92 19.62 33.55 22.19 33.55 22.19 23.07 22.19 23.07 22.19 22.69 19.62 20.48 17.64 17.82 17.64 15.16 17.64 12.96 19.62 12.58 22.19 12.58 22.19 9.99 22.19 9.99 22.19 8.93 22.19 8.06 21.33 8.06 20.25 8.06 20.25 8.06 15.96 8.06 15.96 8.06 15.96 48.04 15.96 48.04 15.96ZM 38.79 18.94C 36.58 18.94 34.78 20.74 34.78 22.96 34.78 25.18 36.58 26.98 38.79 26.98 41 26.98 42.8 25.18 42.8 22.96 42.8 20.74 41 18.94 38.79 18.94 38.79 18.94 38.79 18.94 38.79 18.94ZM 38.79 24.97C 37.69 24.97 36.79 24.07 36.79 22.96 36.79 21.85 37.69 20.95 38.79 20.95 39.89 20.95 40.8 21.85 40.8 22.96 40.8 24.07 39.89 24.97 38.79 24.97 38.79 24.97 38.79 24.97 38.79 24.97ZM 47.27 11.64C 47.27 11.64 39.68 4.11 39.68 4.11 39.2 3.63 38.55 3.36 37.87 3.36 37.87 3.36 34.04 3.36 34.04 3.36 34.04 3.36 34.04 1.92 34.04 1.92 34.04 0.85 33.18-0.02 32.11-0.02 32.11-0.02 9.99-0.02 9.99-0.02 8.93-0.02 8.06 0.85 8.06 1.92 8.06 1.92 8.06 2.22 8.06 2.22 8.06 2.22 0.22 3.13 0.22 3.13 0.22 3.13 14.11 4.94 14.11 4.94 14.11 4.94 0.04 6.35 0.04 6.35 0.04 6.35 14.06 8.35 14.06 8.35 14.06 8.35 0.04 9.57 0.04 9.57 0.04 9.57 8.06 11.08 8.06 11.08 8.06 11.08 8.06 14.89 8.06 14.89 8.06 14.89 48.03 14.89 48.03 14.89 48.03 14.89 48.03 13.48 48.03 13.48 48.03 12.79 47.76 12.13 47.27 11.64 47.27 11.64 47.27 11.64 47.27 11.64ZM 43.96 11.89C 43.96 11.89 36.62 11.89 36.62 11.89 36.45 11.89 36.31 11.76 36.31 11.59 36.31 11.59 36.31 5.9 36.31 5.9 36.31 5.73 36.45 5.59 36.62 5.59 36.62 5.59 38.01 5.59 38.01 5.59 38.09 5.59 38.17 5.63 38.23 5.68 38.23 5.68 44.17 11.37 44.17 11.37 44.37 11.56 44.24 11.89 43.96 11.89 43.96 11.89 43.96 11.89 43.96 11.89Z" fill="rgb(0,0,0)"/></svg>